PathFileType	4	(X/Y/Z)	/Users/itak/Documents/Research/Walk-IL/dataset/trc/00253_00009.trc
DataRate	CameraRate	NumFrames	NumMarkers	Units	OrigDataRate	OrigDataStartFrame	OrigNumFrames
100.000000	100.000000	4	54	mm	100.000000	177	474
Frame#	Time	RPSI			LPSI			L3			STRN			T10			C7			CLAV			RBAK			LBAK			LSHO			LUPA			LAEL			LAOL			LWTS			LWPS			LFRA			LIFD			LHPS			LHTS			RSHO			RUPA			RAEL			RAOL			RWTS			RWPS			RFRA			RIFD			RHPS			RBHD			LFHD			RFHD			LBHD			LHIP			RHIP			RASI			LASI			LKNE			LTHI			LANK			LTIP			LTOE			LMT1			LMT5			LHEE			RKNE			RTHI			RANK			RTIP			RTOE			RMT1			RMT5			RHEE			RHTS			*53			
		X1	Y1	Z1	X2	Y2	Z2	X3	Y3	Z3	X4	Y4	Z4	X5	Y5	Z5	X6	Y6	Z6	X7	Y7	Z7	X8	Y8	Z8	X9	Y9	Z9	X10	Y10	Z10	X11	Y11	Z11	X12	Y12	Z12	X13	Y13	Z13	X14	Y14	Z14	X15	Y15	Z15	X16	Y16	Z16	X17	Y17	Z17	X18	Y18	Z18	X19	Y19	Z19	X20	Y20	Z20	X21	Y21	Z21	X22	Y22	Z22	X23	Y23	Z23	X24	Y24	Z24	X25	Y25	Z25	X26	Y26	Z26	X27	Y27	Z27	X28	Y28	Z28	X29	Y29	Z29	X30	Y30	Z30	X31	Y31	Z31	X32	Y32	Z32	X33	Y33	Z33	X34	Y34	Z34	X35	Y35	Z35	X36	Y36	Z36	X37	Y37	Z37	X38	Y38	Z38	X39	Y39	Z39	X40	Y40	Z40	X41	Y41	Z41	X42	Y42	Z42	X43	Y43	Z43	X44	Y44	Z44	X45	Y45	Z45	X46	Y46	Z46	X47	Y47	Z47	X48	Y48	Z48	X49	Y49	Z49	X50	Y50	Z50	X51	Y51	Z51	X52	Y52	Z52	X53	Y53	Z53	X54	Y54	Z54	

178	1.77	-1182.321533203125	1036.231811523438	-384.3325805664062	-1138.460571289062	1045.850341796875	-495.6820373535156	-1155.079711914062	1128.724365234375	-461.2084350585938	-908.7332763671875	1305.033203125	-364.9132995605469	-1147.008422851562	1254.309814453125	-457.2658386230469	-1078.057373046875	1512.826538085938	-439.2217407226562	-928.6220092773438	1423.522216796875	-372.9249877929688	-1178.15673828125	1376.9814453125	-402.5390625	-1056.514038085938	1474.632568359375	-549.7572631835938	-954.197998046875	1473.343994140625	-563.2127685546875	-941.7413330078125	1361.886840820312	-650.4275512695312	-881.4916381835938	1162.926391601562	-683.662109375	-960.262939453125	1127.703369140625	-670.0611572265625	-763.4085693359375	955.5330200195312	-589.0855712890625	-747.080322265625	943.0521240234375	-672.237548828125	-828.5131225585938	1066.848754882812	-686.0147094726562	-716.6447143554688	772.4529418945312	-594.3789672851562	-708.8822631835938	862.587158203125	-662.2386474609375	-695.8958129882812	869.5029296875	-594.0585327148438	-1093.690063476562	1476.691162109375	-260.9077758789062	-1141.215454101562	1413.334228515625	-209.7860717773438	-1200.735717773438	1137.687622070312	-181.0145263671875	-1190.758056640625	1129.550415039062	-275.5539245605469	-1040.0107421875	938.7809448242188	-156.7582855224609	-1114.345703125	914.9828491210938	-122.2997360229492	-1178.563720703125	1069.714965820312	-156.557373046875	-998.1279907226562	748.8175659179688	-150.2529449462891	-1066.249389648438	814.0879516601562	-102.0823287963867	-1055.791259765625	1661.890380859375	-387.4592590332031	-834.5493774414062	1711.27197265625	-367.7703247070312	-885.8760986328125	1710.583251953125	-281.8548889160156	-949.8873901367188	1670.086669921875	-478.8491821289062	-996.7266845703125	984.7860107421875	-594.6742553710938	-1127.239868164062	997.7530517578125	-250.4263610839844	-1023.743713378906	1040.05224609375	-253.6536560058594	-917.9776611328125	1023.962951660156	-513.4076538085938	-969.4228515625	499.4026489257812	-519.7867431640625	-966.040283203125	643.2233276367188	-552.7998046875	-1118.681884765625	36.91477966308594	-529.6761474609375	-1041.913696289062	276.5558776855469	-535.1469116210938	-923.0435180664062	44.20323944091797	-423.2386474609375	-999.861572265625	41.68864059448242	-397.3858032226562	-991.2241821289062	35.16679382324219	-516.9591674804688	-1191.151245117188	46.67380142211914	-494.5920715332031	-955.361572265625	527.3678588867188	-210.0254821777344	-1032.259765625	788.107177734375	-206.5222473144531	-1221.018310546875	125.3838043212891	-298.7977600097656	-976.2769165039062	413.0177307128906	-228.6729736328125	-1024.916381835938	59.86576461791992	-273.4911804199219	-1060.996948242188	68.47433471679688	-333.1461181640625	-1135.22265625	82.32684326171875	-240.91845703125	-1255.429077148438	148.2254180908203	-372.0914306640625	-996.775390625	823.7371215820312	-123.5141677856445	nan	nan	nan	
179	1.78	-1177.353149414062	1036.454956054688	-384.0992431640625	-1133.011108398438	1045.954345703125	-495.2349548339844	-1149.656860351562	1128.9736328125	-460.9685974121094	-903.378662109375	1304.749145507812	-363.3521118164062	-1141.145629882812	1254.532470703125	-457.2745056152344	-1071.858032226562	1512.868286132812	-438.5621948242188	-923.0411376953125	1423.29296875	-371.2964782714844	-1172.40869140625	1377.1220703125	-402.7070617675781	-1049.47705078125	1474.797485351562	-549.0606689453125	-947.1334228515625	1473.57373046875	-561.58740234375	-933.23095703125	1362.282348632812	-648.6755981445312	-870.93115234375	1163.827026367188	-681.0433959960938	-949.493896484375	1127.874389648438	-668.3355712890625	-751.6348266601562	958.1959228515625	-584.2310180664062	-734.1259765625	945.58349609375	-667.0782470703125	-816.8804321289062	1068.34228515625	-682.3916625976562	-702.5174560546875	775.5971069335938	-588.2947387695312	-695.152587890625	865.6309204101562	-656.249267578125	-683.0399780273438	872.9761962890625	-587.9503173828125	-1088.791625976562	1476.523559570312	-260.4124755859375	-1136.660766601562	1413.175048828125	-209.6379852294922	-1196.581176757812	1137.586059570312	-181.3829650878906	-1185.883056640625	1129.402099609375	-275.8644714355469	-1036.570678710938	938.2664794921875	-155.7779235839844	-1111.319091796875	914.7156372070312	-121.8879852294922	-1174.79931640625	1069.57275390625	-156.7489776611328	-995.3433227539062	748.2161254882812	-148.7019653320312	-1063.648559570312	813.7044677734375	-101.184684753418	-1049.827270507812	1661.858642578125	-386.3860778808594	-828.6917114257812	1711.027099609375	-365.5411376953125	-880.421875	1710.310791015625	-279.8688049316406	-943.54150390625	1670.049926757812	-477.1931457519531	-991.2454223632812	984.5826416015625	-593.8323364257812	-1122.640625	998.211181640625	-249.9821472167969	-1019.143188476562	1040.219604492188	-252.9147033691406	-912.5369873046875	1023.640625	-512.3277587890625	-968.5538330078125	499.0707702636719	-520.1998291015625	-963.6151123046875	642.9776611328125	-552.610107421875	-1118.697998046875	36.96792602539062	-529.6280517578125	-1041.560302734375	276.5394897460938	-535.4263916015625	-923.0374755859375	44.21685791015625	-423.2645568847656	-999.845947265625	41.71322250366211	-397.3865661621094	-991.2432250976562	35.14400100708008	-516.9782104492188	-1191.027221679688	46.73728942871094	-494.5316467285156	-946.9440307617188	529.336181640625	-207.3258666992188	-1026.777465820312	789.472900390625	-204.6627349853516	-1198.791381835938	117.3105773925781	-295.7255249023438	-964.9622192382812	413.7839660644531	-225.6317443847656	-1000.423583984375	59.84088897705078	-268.0196228027344	-1036.31396484375	66.48892211914062	-328.089111328125	-1111.98779296875	78.07921600341797	-236.8201904296875	-1233.482055664062	138.2920227050781	-369.5295104980469	-993.9945678710938	823.131591796875	-122.0302276611328	nan	nan	nan	
180	1.79	-1172.3603515625	1036.664794921875	-383.786376953125	-1127.542114257812	1046.049194335938	-494.7060241699219	-1144.169921875	1129.187133789062	-460.6463928222656	-897.9677124023438	1304.425048828125	-361.7548828125	-1135.267456054688	1254.713745117188	-457.2075500488281	-1065.639404296875	1512.866943359375	-437.82177734375	-917.436767578125	1423.01904296875	-369.6435546875	-1166.631469726562	1377.226806640625	-402.7587585449219	-1042.452392578125	1474.912719726562	-548.27685546875	-940.0830688476562	1473.741821289062	-559.9285888671875	-924.834228515625	1362.602294921875	-646.8558349609375	-860.6093139648438	1164.635131835938	-678.3192138671875	-938.9955444335938	1127.9931640625	-666.4880981445312	-740.2041625976562	960.7845458984375	-579.2022705078125	-721.5464477539062	948.0064086914062	-661.7373046875	-805.5313110351562	1069.73095703125	-678.6325073242188	-688.6891479492188	778.7254638671875	-581.8778686523438	-681.8150634765625	868.578369140625	-650.031494140625	-670.5581665039062	876.3914184570312	-581.6395874023438	-1083.793212890625	1476.316650390625	-259.8284606933594	-1132.000610351562	1412.98779296875	-209.3912506103516	-1192.338989257812	1137.476806640625	-181.5444641113281	-1181.029174804688	1129.249267578125	-275.9838256835938	-1033.222778320312	937.61767578125	-154.8030548095703	-1108.331909179688	914.3912963867188	-121.3890838623047	-1170.98974609375	1069.416625976562	-156.7764587402344	-992.8499755859375	747.4205932617188	-147.3134613037109	-1061.184936523438	813.1996459960938	-100.3017272949219	-1043.8681640625	1661.776123046875	-385.2596740722656	-822.8333740234375	1710.757202148438	-363.2742309570312	-874.9818725585938	1709.990478515625	-277.833740234375	-937.1944580078125	1669.976684570312	-475.4888305664062	-985.7506713867188	984.341064453125	-592.9268798828125	-1118.006469726562	998.6165161132812	-249.4696807861328	-1014.486267089844	1040.31689453125	-252.0952606201172	-907.1038208007812	1023.248474121094	-511.1853332519531	-967.7110595703125	498.74072265625	-520.5870971679688	-961.1884155273438	642.7111206054688	-552.3883056640625	-1118.717407226562	37.01959609985352	-529.5817260742188	-1041.236450195312	276.5362854003906	-535.6897583007812	-923.0293579101562	44.24742889404297	-423.2907104492188	-999.849365234375	41.72805404663086	-397.3875427246094	-991.24951171875	35.12050247192383	-516.9918212890625	-1190.93603515625	46.80738830566406	-494.4829711914062	-938.9804077148438	531.1873779296875	-204.6592864990234	-1021.441162109375	790.7349853515625	-202.7710723876953	-1176.0654296875	109.2243499755859	-292.5065002441406	-953.9774169921875	414.49560546875	-222.5474243164062	-975.7910766601562	60.0286750793457	-262.1720886230469	-1011.305603027344	64.71157836914062	-322.6884765625	-1088.468017578125	73.96633911132812	-232.4642791748047	-1210.875854492188	128.2724914550781	-366.8671569824219	-991.3638916015625	822.3453979492188	-120.676643371582	nan	nan	nan	
181	1.8	-1167.333740234375	1036.856811523438	-383.3841857910156	-1122.060668945312	1046.134033203125	-494.0917663574219	-1138.625244140625	1129.363403320312	-460.2370910644531	-892.5004272460938	1304.062622070312	-360.119140625	-1129.380737304688	1254.846313476562	-457.0530090332031	-1059.406005859375	1512.819213867188	-437.0010681152344	-911.8032836914062	1422.701538085938	-367.9621276855469	-1160.827392578125	1377.290649414062	-402.6906433105469	-1035.443237304688	1474.97314453125	-547.4038696289062	-933.0498046875	1473.842529296875	-558.2340698242188	-916.552001953125	1362.842163085938	-644.9682006835938	-850.5281982421875	1165.33935546875	-675.4935302734375	-928.7677612304688	1128.046142578125	-664.522216796875	-729.1133422851562	963.2896118164062	-574.0100708007812	-709.3502197265625	950.3079223632812	-656.2265014648438	-794.466552734375	1071.004638671875	-674.746826171875	-675.1744995117188	781.8317260742188	-575.1380004882812	-668.8821411132812	871.4130859375	-643.5969848632812	-658.4658203125	879.7245483398438	-575.1393432617188	-1078.695190429688	1476.074340820312	-259.1522827148438	-1127.242797851562	1412.775634765625	-209.0445556640625	-1188.032592773438	1137.361328125	-181.5224914550781	-1176.201049804688	1129.097412109375	-275.930908203125	-1029.960693359375	936.853271484375	-153.8231201171875	-1105.380493164062	914.020263671875	-120.8094253540039	-1167.145629882812	1069.251342773438	-156.6533813476562	-990.623779296875	746.457763671875	-146.0752716064453	-1058.850219726562	812.5904541015625	-99.43517303466797	-1037.910888671875	1661.6416015625	-384.0748901367188	-816.972900390625	1710.46044921875	-360.9654541015625	-869.5540161132812	1709.615600585938	-275.7470397949219	-930.843994140625	1669.867919921875	-473.7363586425781	-980.24072265625	984.057861328125	-591.956298828125	-1113.334350585938	998.9656372070312	-248.8868408203125	-1009.757873535156	1040.339721679688	-251.19580078125	-901.669921875	1022.787292480469	-509.9871826171875	-966.8778686523438	498.4089965820312	-520.9299926757812	-958.7529907226562	642.4223022460938	-552.1298828125	-1118.740478515625	37.07222366333008	-529.5346069335938	-1040.948120117188	276.5498046875	-535.9326171875	-923.0213623046875	44.29415130615234	-423.3177795410156	-999.87451171875	41.72986602783203	-397.3937377929688	-991.2454223632812	35.09702301025391	-517.0014038085938	-1190.880615234375	46.89402389526367	-494.446533203125	-931.4910278320312	532.8897094726562	-202.0377349853516	-1016.276428222656	791.87353515625	-200.8596496582031	-1152.90673828125	101.2507705688477	-289.1526184082031	-943.3472900390625	415.1574096679688	-219.4228820800781	-951.1404418945312	60.46560287475586	-255.9293365478516	-986.0722045898438	63.20553207397461	-316.9136962890625	-1064.766479492188	70.08176422119141	-227.8490142822266	-1187.653198242188	118.3036880493164	-364.1189575195312	-988.8739013671875	821.3949584960938	-119.445426940918	nan	nan	nan	
